<?xml version="1.0" encoding="UTF-8"?>
<svg version="1.1" xmlns="http://www.w3.org/2000/svg" width="300" height="300">
<path d="M0 0 C99 0 198 0 300 0 C300 99 300 198 300 300 C201 300 102 300 0 300 C0 201 0 102 0 0 Z " fill="#FEFEFE" transform="translate(0,0)"/>
<path d="M0 0 C11.81559886 9.8865215 18.63587892 22.1073057 20.875 37.3125 C22.10407189 52.33074832 19.10370319 67.003405 9.73046875 79.07421875 C-1.10812426 91.42689119 -13.77639322 100.59225467 -30.7265625 101.69921875 C-47.74883183 102.31833475 -61.70513143 97.48871974 -74.9375 86.5625 C-84.46219262 77.60618868 -91.98927949 63.58081821 -92.3984375 50.34765625 C-92.67278498 38.97227313 -92.76059691 29.47084177 -87.125 19.3125 C-86.60550781 18.3534375 -86.08601563 17.394375 -85.55078125 16.40625 C-77.81483157 3.27857782 -66.43348685 -5.53644473 -52.125 -10.6875 C-33.75396197 -14.5694753 -15.0262676 -11.36132428 0 0 Z " fill="#FCFBFD" transform="translate(201.125,62.6875)"/>
<path d="M0 0 C11.81559886 9.8865215 18.63587892 22.1073057 20.875 37.3125 C22.10407189 52.33074832 19.10370319 67.003405 9.73046875 79.07421875 C-1.10812426 91.42689119 -13.77639322 100.59225467 -30.7265625 101.69921875 C-47.74883183 102.31833475 -61.70513143 97.48871974 -74.9375 86.5625 C-84.46219262 77.60618868 -91.98927949 63.58081821 -92.3984375 50.34765625 C-92.67278498 38.97227313 -92.76059691 29.47084177 -87.125 19.3125 C-86.60550781 18.3534375 -86.08601563 17.394375 -85.55078125 16.40625 C-77.81483157 3.27857782 -66.43348685 -5.53644473 -52.125 -10.6875 C-33.75396197 -14.5694753 -15.0262676 -11.36132428 0 0 Z M-70 14.125 C-79.44082196 25.25469888 -82.17674236 36.94408135 -81.125 51.3125 C-80.46511025 54.81906745 -79.45855506 58.00760267 -78.125 61.3125 C-77.74214844 62.32183594 -77.74214844 62.32183594 -77.3515625 63.3515625 C-73.13767814 73.05509438 -64.43178605 81.42832389 -55 86 C-54.15179688 86.41636719 -53.30359375 86.83273438 -52.4296875 87.26171875 C-43.79952411 91.19648816 -30.5621228 90.6603104 -21.5 88.1875 C-8.4332492 83.24145876 0.20336402 74.91684714 6.46484375 62.55078125 C8.38474192 58.14192922 9.44346406 54.09077983 9.875 49.3125 C9.99681641 48.15041016 9.99681641 48.15041016 10.12109375 46.96484375 C10.75410293 35.16785455 6.36497441 23.32820994 -1.125 14.3125 C-7.40874881 8.0480265 -13.74072349 4.07387435 -22.125 1.3125 C-22.888125 0.95671875 -23.65125 0.6009375 -24.4375 0.234375 C-40.66969081 -5.33364394 -58.83309318 2.36646898 -70 14.125 Z " fill="#9340EF" transform="translate(201.125,62.6875)"/>
<path d="M0 0 C6.27 0 12.54 0 19 0 C20 1 20 1 20.12025452 3.89161682 C20.1169236 5.83354164 20.1169236 5.83354164 20.11352539 7.81469727 C20.11367142 8.52685394 20.11381744 9.23901062 20.1139679 9.9727478 C20.1132687 12.33733112 20.10547606 14.70183661 20.09765625 17.06640625 C20.09579209 18.70165463 20.09436818 20.33690357 20.09336853 21.97215271 C20.08954318 26.28434785 20.07971275 30.59650952 20.06866455 34.90869141 C20.0584508 39.30565946 20.05387099 43.70263289 20.04882812 48.09960938 C20.03809049 56.73309002 20.02049356 65.36653699 20 74 C13.4 74 6.8 74 0 74 C0 49.58 0 25.16 0 0 Z " fill="#420183" transform="translate(202,175)"/>
<path d="M0 0 C1.27423828 -0.00193359 1.27423828 -0.00193359 2.57421875 -0.00390625 C3.91419922 0.00189453 3.91419922 0.00189453 5.28125 0.0078125 C6.17457031 0.00394531 7.06789062 0.00007812 7.98828125 -0.00390625 C8.83777344 -0.00261719 9.68726563 -0.00132812 10.5625 0 C11.34689453 0.00112793 12.13128906 0.00225586 12.93945312 0.00341797 C14.78125 0.1328125 14.78125 0.1328125 15.78125 1.1328125 C15.87550595 3.28024799 15.89867648 5.43082276 15.89477539 7.58032227 C15.89492142 8.25346466 15.89506744 8.92660706 15.8952179 9.62014771 C15.89451878 11.85487034 15.88672652 14.0895106 15.87890625 16.32421875 C15.87704206 17.86978612 15.87561816 19.41535407 15.87461853 20.96092224 C15.8707934 25.03638327 15.86096317 29.11180887 15.84991455 33.18725586 C15.83970032 37.34293132 15.83512089 41.49861249 15.83007812 45.65429688 C15.81934089 53.81382018 15.80174414 61.97330786 15.78125 70.1328125 C8.85125 70.1328125 1.92125 70.1328125 -5.21875 70.1328125 C-5.24130299 61.15360144 -5.25966622 52.17440905 -5.27056217 43.19517612 C-5.27579051 39.02618422 -5.28288726 34.85721263 -5.29418945 30.68823242 C-5.30502008 26.66823564 -5.31102721 22.64825845 -5.31362724 18.62824821 C-5.31548118 17.09118275 -5.31910119 15.55411841 -5.32448006 14.01706123 C-5.33169284 11.87145763 -5.33274084 9.72593595 -5.33227539 7.58032227 C-5.334496 6.35676529 -5.33671661 5.13320831 -5.33900452 3.87257385 C-5.1493982 -0.44723119 -3.90946312 0.00562166 0 0 Z " fill="#470886" transform="translate(124.21875,179.8671875)"/>
<path d="M0 0 C1.08328221 1.60541823 2.09050517 3.26235997 3.0625 4.9375 C8.99153411 14.48030491 16.64449817 20.92575977 26 27 C24.25 30.875 24.25 30.875 22 32 C20.54321351 32.07030823 19.08331917 32.08430211 17.625 32.0625 C16.85414063 32.05347656 16.08328125 32.04445312 15.2890625 32.03515625 C14.53367188 32.02355469 13.77828125 32.01195312 13 32 C8.8507845 31.56163696 8.8507845 31.56163696 6.05493164 34.5703125 C4.91374926 35.7459744 3.78277049 36.93159504 2.66015625 38.125 C1.42000467 39.40112213 0.17976766 40.67716125 -1.06054688 41.953125 C-3.00404345 43.97752887 -4.94318754 46.00596566 -6.87963867 48.03710938 C-8.75169721 49.9935377 -10.63867436 51.9346235 -12.52734375 53.875 C-13.10145493 54.48746582 -13.6755661 55.09993164 -14.26707458 55.73095703 C-18.31465246 59.87681126 -18.31465246 59.87681126 -21.75317383 60.49487305 C-24.99210945 59.78148366 -26.45712763 58.17077309 -28.75 55.8125 C-29.52859375 55.03519531 -30.3071875 54.25789063 -31.109375 53.45703125 C-33.26514839 50.65541666 -34.0137496 49.53583589 -34 46 C-32.24197239 43.44188241 -29.99236621 41.44121191 -27.71875 39.34375 C-27.07127808 38.7189978 -26.42380615 38.09424561 -25.75671387 37.45056152 C-22.98270811 34.77482165 -20.17471882 32.13574812 -17.36962891 29.49267578 C-15.32811314 27.55938266 -13.30455852 25.60856082 -11.28125 23.65625 C-10.31729309 22.76697815 -10.31729309 22.76697815 -9.3338623 21.85974121 C-7.7200387 20.3006952 -6.26812978 18.85120862 -5 17 C-4.93569689 14.3083268 -4.93569689 14.3083268 -6 12 C-6.38058761 7.73741878 -6.45330508 5.71017796 -4.125 2.0625 C-2 0 -2 0 0 0 Z " fill="#923EEF" transform="translate(112,134)"/>
<path d="M0 0 C1.55214428 0.00399351 3.1042894 0.01875918 4.65625 0.04296875 C5.83380859 0.04393555 5.83380859 0.04393555 7.03515625 0.04492188 C12.87531304 0.09000027 12.87531304 0.09000027 15.15625 1.23046875 C15.15625 19.05046875 15.15625 36.87046875 15.15625 55.23046875 C8.22625 55.23046875 1.29625 55.23046875 -5.84375 55.23046875 C-5.89307215 47.71908535 -5.92943254 40.20779556 -5.95361328 32.69628906 C-5.96369038 30.13930622 -5.97735226 27.58233496 -5.99462891 25.02539062 C-6.01880217 21.35674183 -6.03021585 17.68824496 -6.0390625 14.01953125 C-6.04938507 12.87054352 -6.05970764 11.72155579 -6.07034302 10.53775024 C-6.07049408 9.47680145 -6.07064514 8.41585266 -6.07080078 7.32275391 C-6.075242 6.38565582 -6.07968323 5.44855774 -6.08425903 4.48306274 C-5.63596266 0.28434424 -4.00595293 0.24019433 0 0 Z " fill="#490A87" transform="translate(165.84375,194.76953125)"/>
<path d="M0 0 C2.0029615 0.09701845 4.0028345 0.25695267 6 0.4375 C13.35360359 1.02075195 20.6877867 1.11696538 28.0625 1.125 C29.14466797 1.12943115 30.22683594 1.1338623 31.34179688 1.13842773 C36.35867478 1.1294299 41.06007387 0.95781774 46 0 C47.62394748 -0.0620775 49.25005297 -0.08712041 50.875 -0.0625 C52.04675781 -0.04896484 52.04675781 -0.04896484 53.2421875 -0.03515625 C53.82226562 -0.02355469 54.40234375 -0.01195313 55 0 C55.495 2.475 55.495 2.475 56 5 C51.43706052 7.59419456 47.28679202 8.64231073 42.125 9.1875 C41.09246094 9.3102832 41.09246094 9.3102832 40.0390625 9.43554688 C38.36052643 9.63370738 36.68039519 9.81827787 35 10 C34.2254529 20.54244664 36.85366515 29.84869227 40.8125 39.5625 C42.00830965 43.02405426 42.17383017 44.58522134 41 48 C39.02 48.495 39.02 48.495 37 49 C32.98024899 42.91294847 29.89111876 36.69263237 27 30 C26.68546875 30.78503906 26.3709375 31.57007812 26.046875 32.37890625 C23.68774858 38.17013527 21.27173331 43.66828647 18 49 C14.125 48.125 14.125 48.125 13 47 C13.2914713 42.53077343 14.36043922 38.81480327 15.9375 34.625 C18.44713739 27.93567562 20.11814994 21.903606 20.046875 14.72265625 C20.04010742 13.83457275 20.03333984 12.94648926 20.02636719 12.03149414 C20.01766602 11.36110107 20.00896484 10.69070801 20 10 C19.40461426 9.91959473 18.80922852 9.83918945 18.19580078 9.75634766 C15.50426239 9.38791016 12.81469931 9.00662173 10.125 8.625 C8.71927734 8.43550781 8.71927734 8.43550781 7.28515625 8.2421875 C5.94130859 8.04882812 5.94130859 8.04882812 4.5703125 7.8515625 C3.32918701 7.67874756 3.32918701 7.67874756 2.06298828 7.50244141 C0 7 0 7 -2 5 C-1.46428571 1.46428571 -1.46428571 1.46428571 0 0 Z " fill="#4A0B88" transform="translate(138,92)"/>
<path d="M0 0 C0.83724609 -0.01224609 1.67449219 -0.02449219 2.53710938 -0.03710938 C3.73883789 -0.04000977 3.73883789 -0.04000977 4.96484375 -0.04296875 C5.70210693 -0.04707764 6.43937012 -0.05118652 7.19897461 -0.05541992 C9.0625 0.1875 9.0625 0.1875 11.0625 2.1875 C11.23738254 4.62494897 11.29427405 6.9468608 11.2578125 9.3828125 C11.2549826 10.09025604 11.25215271 10.79769958 11.24923706 11.52658081 C11.23803137 13.7887251 11.21292679 16.05047515 11.1875 18.3125 C11.17747067 19.84504637 11.16834474 21.37759894 11.16015625 22.91015625 C11.1397912 26.66954535 11.10064518 30.42808078 11.0625 34.1875 C4.1325 34.1875 -2.7975 34.1875 -9.9375 34.1875 C-9.96041088 29.50604289 -9.98033732 24.82477898 -9.99243164 20.14331055 C-9.99747157 18.54955386 -10.0043035 16.95580181 -10.01293945 15.36206055 C-10.02501999 13.07599747 -10.03073155 10.78999533 -10.03515625 8.50390625 C-10.04031754 7.78723282 -10.04547882 7.07055939 -10.05079651 6.33216858 C-10.05099263 4.61686328 -9.99942007 2.90168734 -9.9375 1.1875 C-7.78017167 -0.96982833 -2.98951247 0.00229081 0 0 Z " fill="#480987" transform="translate(87.9375,215.8125)"/>
<path d="M0 0 C3.99104912 0.30178065 6.19416343 1.73413808 9 4.625 C10.42662219 7.47824437 10.31033868 9.45954549 10 12.625 C8.20006226 15.32490662 6.916227 17.1668865 4 18.625 C-3.24087591 19.20894161 -3.24087591 19.20894161 -6.4375 16.75 C-9.04432356 13.20471996 -9.50992194 11.04432351 -9 6.625 C-6.59221978 2.56187088 -4.78704154 0.25385826 0 0 Z " fill="#460786" transform="translate(165,73.375)"/>
</svg>
